<svg width="42" height="42" viewBox="0 0 42 42" xmlns="http://www.w3.org/2000/svg">
  <rect width="42" height="42" rx="9" fill="#FF5A1F"/>
  <g transform="translate(0, 5)">
    <path d="M41.9492 3.64648L25.7959 31.9658L16.2139 31.9473L0 3.62793L2.12012 0H39.9404L41.9492 3.64648ZM4.12402 3.60547L18.2852 28.3457L22.4365 28.3428L20.998 25.8291C19.7212 23.5983 19.7204 20.8583 20.9961 18.627L25.1436 25.875L37.8662 3.60645L25.4385 3.60449L20.9922 11.3799L16.5518 3.60352L12.4023 3.60449L16.8613 11.3984C18.1381 13.6304 18.1385 16.3712 16.8623 18.6035L8.27637 3.60254L4.12402 3.60547ZM25.1475 18.6553L23.1074 15.0527L25.4785 10.8447C26.7382 8.6084 29.1052 7.22461 31.6719 7.22461L25.1475 18.6553Z" fill="white"/>
  </g>
</svg>
