<svg width="252" height="32" viewBox="0 0 252 32" fill="none" xmlns="http://www.w3.org/2000/svg">
<path d="M41.9492 3.64648L25.7959 31.9658L16.2139 31.9473L0 3.62793L2.12012 0H39.9404L41.9492 3.64648ZM4.12402 3.60547L18.2852 28.3457L22.4365 28.3428L20.998 25.8291C19.7212 23.5983 19.7204 20.8583 20.9961 18.627L25.1436 25.875L37.8662 3.60645L25.4385 3.60449L20.9922 11.3799L16.5518 3.60352L12.4023 3.60449L16.8613 11.3984C18.1381 13.6304 18.1385 16.3712 16.8623 18.6035L8.27637 3.60254L4.12402 3.60547ZM25.1475 18.6553L23.1074 15.0527L25.4785 10.8447C26.7382 8.6084 29.1052 7.22461 31.6719 7.22461L25.1475 18.6553Z" fill="white"/>
<path d="M228.749 28.7439V3.22336H238.993C240.767 3.22336 242.445 3.47856 244.024 3.98897C245.604 4.49938 246.977 5.28931 248.144 6.35874C249.335 7.40386 250.271 8.7285 250.951 10.3326C251.632 11.9368 251.972 13.8205 251.972 15.9836C251.972 18.1468 251.632 20.0304 250.951 21.6346C250.271 23.2387 249.335 24.5755 248.144 25.645C246.977 26.6901 245.604 27.4679 244.024 27.9783C242.445 28.4887 240.767 28.7439 238.993 28.7439H228.749ZM229.879 6.57748C230.146 6.57748 230.426 6.60179 230.717 6.6504C231.009 6.67471 231.276 6.73547 231.519 6.83269C231.762 6.90561 231.957 7.01498 232.103 7.16081C232.248 7.30664 232.321 7.48893 232.321 7.70768V25.3898H239.175C240.269 25.3898 241.363 25.2318 242.457 24.9158C243.55 24.5755 244.535 24.0287 245.41 23.2752C246.309 22.5217 247.026 21.5495 247.561 20.3586C248.12 19.1676 248.399 17.7093 248.399 15.9836C248.399 14.3066 248.132 12.8725 247.597 11.6816C247.063 10.4906 246.358 9.51842 245.483 8.76496C244.608 8.0115 243.611 7.46463 242.493 7.12435C241.399 6.75977 240.294 6.57748 239.175 6.57748H229.879Z" fill="white"/>
<path d="M202.795 28.7439V3.22336H206.477L220.513 22.0356C220.829 22.4488 221.121 22.9106 221.388 23.421C221.656 23.9314 221.862 24.4297 222.008 24.9158L222.081 24.8793C221.911 24.4175 221.777 23.895 221.68 23.3117C221.583 22.7283 221.534 22.1936 221.534 21.7075V3.22336H225.107V28.7439H221.425L207.352 10.1504C207.06 9.76147 206.781 9.31183 206.513 8.80142C206.246 8.2667 206.027 7.75629 205.857 7.27018L205.821 7.30664C205.967 7.79275 206.088 8.32746 206.185 8.91079C206.307 9.46981 206.368 10.0045 206.368 10.5149V28.7439H202.795Z" fill="white"/>
<path d="M180.081 3.22336H199.258V6.57748H183.654V14.8534H198.748V17.843H183.654V25.3898H199.258V28.7439H180.081V3.22336Z" fill="white"/>
<path d="M152.448 3.22336H156.239L164.369 25.7179C164.418 25.888 164.454 26.0825 164.479 26.3012C164.503 26.52 164.515 26.7265 164.515 26.921H164.588C164.588 26.7265 164.6 26.52 164.625 26.3012C164.673 26.0825 164.722 25.888 164.77 25.7179L172.901 3.22336H176.729L167.505 28.7439H161.672L152.448 3.22336Z" fill="white"/>
<path d="M138.649 28.9991C136.899 28.9991 135.246 28.7317 133.691 28.197C132.16 27.6623 130.811 26.8602 129.644 25.7908C128.502 24.7214 127.59 23.3724 126.91 21.744C126.253 20.1155 125.925 18.1954 125.925 15.9836C125.925 13.7719 126.253 11.8517 126.91 10.2233C127.59 8.57053 128.502 7.20944 129.644 6.14001C130.811 5.04627 132.16 4.24419 133.691 3.73378C135.246 3.19907 136.899 2.94386 138.649 2.96817C140.399 2.99247 142.04 3.27198 143.571 3.8067C145.126 4.31711 146.475 5.11918 147.618 6.21292C148.784 7.28235 149.696 8.63129 150.352 10.2597C151.033 11.8639 151.373 13.7719 151.373 15.9836C151.373 18.1954 151.033 20.1155 150.352 21.744C149.696 23.3724 148.784 24.7214 147.618 25.7908C146.475 26.8602 145.126 27.6623 143.571 28.197C142.04 28.7317 140.399 28.9991 138.649 28.9991ZM138.649 6.32229C137.482 6.32229 136.352 6.54104 135.258 6.97854C134.165 7.39173 133.192 8.01151 132.342 8.83789C131.491 9.66427 130.798 10.6851 130.264 11.9004C129.753 13.0913 129.498 14.4524 129.498 15.9836C129.498 17.5149 129.753 18.876 130.264 20.0669C130.774 21.2579 131.455 22.2665 132.305 23.0929C133.18 23.9193 134.165 24.5512 135.258 24.9887C136.352 25.4262 137.482 25.645 138.649 25.645C139.889 25.645 141.055 25.4262 142.149 24.9887C143.267 24.5512 144.239 23.9193 145.066 23.0929C145.916 22.2665 146.585 21.2579 147.071 20.0669C147.557 18.876 147.8 17.5149 147.8 15.9836C147.8 14.4524 147.545 13.0913 147.034 11.9004C146.524 10.7094 145.831 9.70073 144.956 8.87435C144.106 8.04797 143.133 7.42818 142.04 7.01499C140.946 6.5775 139.816 6.3466 138.649 6.32229Z" fill="white"/>
<path d="M101.474 28.7439V3.22336H113.14C116.057 3.22336 118.342 3.81884 119.994 5.0098C121.647 6.20075 122.473 8.07226 122.473 10.6243C122.473 11.791 122.279 12.7024 121.89 13.3587C121.501 14.0149 121.064 14.5618 120.578 14.9993C120.335 15.2666 120.043 15.5097 119.703 15.7284C119.362 15.9229 118.998 16.093 118.609 16.2388C118.22 16.3847 117.819 16.5062 117.406 16.6034C117.017 16.7006 116.64 16.7857 116.276 16.8586V16.9315C116.664 16.8586 117.078 16.7857 117.515 16.7128C117.977 16.6399 118.439 16.6034 118.901 16.6034C119.314 16.6034 119.69 16.652 120.031 16.7492C120.395 16.8222 120.711 16.968 120.979 17.1867C121.465 17.5027 121.878 17.9645 122.218 18.5721C122.558 19.1798 122.729 20.1155 122.729 21.3794L122.765 28.7439H119.156V21.5981C119.156 20.8933 118.961 20.3829 118.572 20.0669C118.208 19.7266 117.539 19.5565 116.567 19.5565L105.083 19.593V28.7439H101.474ZM112.447 16.4211C113.444 16.4211 114.343 16.2996 115.145 16.0565C115.972 15.7892 116.689 15.4246 117.296 14.9628C117.904 14.501 118.366 13.9663 118.682 13.3587C119.022 12.751 119.192 12.0826 119.192 11.3535C119.192 9.45766 118.621 8.14517 117.479 7.41602C116.361 6.68686 114.817 6.32228 112.849 6.32228H105.083V16.4211H112.447Z" fill="white"/>
<path d="M78.7596 3.22336H97.9364V6.57748H82.3325V14.8534H97.426V17.843H82.3325V25.3898H97.9364V28.7439H78.7596V3.22336Z" fill="white"/>
<path d="M57.0202 3.22336V14.1972H71.5305V3.22336H75.1033V28.7439H71.5305V17.7336H57.0202V28.7439H53.4473V3.22336H57.0202Z" fill="white"/>
</svg>
