<svg width="1440" height="810" viewBox="0 0 1440 810" fill="none" xmlns="http://www.w3.org/2000/svg">
<path d="M1440 810H0V0H1440V810ZM430.911 159.943L398.406 215.568L647.01 649.777L793.917 650.057L1041.59 215.849L1010.8 159.943H430.911ZM656.949 445.187L671.07 420.487C681.89 401.562 681.887 378.324 671.062 359.401L588.573 215.206L652.183 215.2L720.273 334.433L788.443 215.206L978.992 215.234L783.92 556.68L720.337 445.536L706.23 470.205C695.406 489.135 695.41 512.382 706.243 531.308L742.418 594.509L678.76 594.554L461.641 215.232L525.302 215.188L656.949 445.187ZM856.27 270.714C834.056 270.714 813.567 282.689 802.665 302.044L752.708 390.735L783.976 445.98L884.014 270.714H856.27Z" fill="#FB480D" fill-opacity="0.84"/>
</svg>
